<svg xmlns="http://www.w3.org/2000/svg" width="20" height="19" fill="none" viewBox="0 0 20 19">
    <path fill="#F20" d="M1.257 18.86h17.485c.217 0 .43-.055.62-.162.189-.107.347-.262.459-.448.111-.186.173-.398.179-.615.005-.218-.046-.433-.148-.624L11.128.665c-.107-.2-.266-.369-.462-.486C10.471.062 10.248 0 10.02 0c-.465 0-.89.255-1.108.664L.149 17.01c-.103.191-.154.406-.149.623.005.218.067.43.178.616.112.187.27.34.459.448.189.107.402.163.62.163zm8.762-5.029c.165 0 .329.033.482.096.152.063.29.156.408.273.116.116.209.255.272.408.063.152.096.316.096.48 0 .166-.033.33-.096.482-.063.153-.156.291-.273.408-.117.117-.255.21-.408.273-.153.063-.316.095-.481.095-.334 0-.654-.132-.89-.368-.235-.236-.368-.556-.368-.89 0-.333.133-.653.369-.889s.556-.368.89-.368zm-1.257-2.495v-5.03c0-.333.132-.652.368-.888s.556-.368.89-.368c.333 0 .652.132.888.368s.369.555.369.889v5.03c0 .333-.133.653-.369.888-.236.236-.555.369-.889.369-.333 0-.653-.133-.889-.369-.236-.235-.368-.555-.368-.889z"/>
</svg>
